<?xml version="1.0" standalone="no"?>
<!DOCTYPE svg PUBLIC "-//W3C//DTD SVG 20010904//EN"
 "http://www.w3.org/TR/2001/REC-SVG-20010904/DTD/svg10.dtd">
<svg version="1.0" xmlns="http://www.w3.org/2000/svg"
 width="700.000000pt" height="700.000000pt" viewBox="0 0 700.000000 700.000000"
 preserveAspectRatio="xMidYMid meet">
<metadata>
Created by potrace 1.14, written by Peter Selinger 2001-2017
</metadata>
<g transform="translate(0.000000,700.000000) scale(0.100000,-0.100000)"
fill="#000000" stroke="none">
<path d="M787 6984 c-395 -85 -693 -387 -772 -781 -14 -70 -15 -353 -13 -2738
l3 -2660 27 -86 c56 -180 136 -315 255 -432 124 -123 254 -199 428 -254 l90
-28 2695 0 2695 0 90 28 c174 55 304 131 428 254 119 117 199 252 255 432 l27
86 0 2695 0 2695 -28 90 c-55 174 -131 304 -254 428 -117 119 -252 199 -432
255 l-86 27 -2670 2 c-2316 1 -2679 0 -2738 -13z m3833 -2809 l0 -1305 245 0
245 0 0 -330 0 -330 -245 0 -245 0 0 -350 0 -350 -400 0 -400 0 0 350 0 350
-955 0 -955 0 0 325 0 324 832 1311 831 1310 524 0 523 0 0 -1305z"/>
<path d="M3279 3743 c-287 -454 -524 -837 -527 -850 l-4 -23 546 0 546 0 0
850 c0 830 0 850 -19 850 -15 0 -147 -202 -542 -827z"/>
</g>
</svg>
